0
SECTION
2
HEADER
9
$INSUNITS
70
4
9
$ACADVER
1
AC1014
9
$HANDSEED
5
FFFF
0
ENDSEC
0
SECTION
2
TABLES
0
TABLE
2
VPORT
5
8
100
AcDbSymbolTable
0
ENDTAB
0
TABLE
2
LTYPE
5
5
100
AcDbSymbolTable
0
LTYPE
5
14
100
AcDbSymbolTableRecord
100
AcDbLinetypeTableRecord
2
BYBLOCK
70
0
0
LTYPE
5
15
100
AcDbSymbolTableRecord
100
AcDbLinetypeTableRecord
2
BYLAYER
70
0
0
ENDTAB
0
TABLE
2
LAYER
5
2
100
AcDbSymbolTable
70
2
0
LAYER
5
50
100
AcDbSymbolTableRecord
100
AcDbLayerTableRecord
2
0
70
0
6
CONTINUOUS
0
ENDTAB
0
TABLE
2
STYLE
5
3
100
AcDbSymbolTable
70
1
0
STYLE
5
11
100
AcDbSymbolTableRecord
100
AcDbTextStyleTableRecord
2
STANDARD
70
0
0
ENDTAB
0
TABLE
2
VIEW
5
6
100
AcDbSymbolTable
70
0
0
ENDTAB
0
TABLE
2
UCS
5
7
100
AcDbSymbolTable
70
0
0
ENDTAB
0
TABLE
2
APPID
5
9
100
AcDbSymbolTable
70
2
0
APPID
5
12
100
AcDbSymbolTableRecord
100
AcDbRegAppTableRecord
2
ACAD
70
0
0
ENDTAB
0
TABLE
2
DIMSTYLE
5
A
100
AcDbSymbolTable
70
1
0
ENDTAB
0
TABLE
2
BLOCK_RECORD
5
1
100
AcDbSymbolTable
70
1
0
BLOCK_RECORD
5
1F
100
AcDbSymbolTableRecord
100
AcDbBlockTableRecord
2
*MODEL_SPACE
0
BLOCK_RECORD
5
1B
100
AcDbSymbolTableRecord
100
AcDbBlockTableRecord
2
*PAPER_SPACE
0
ENDTAB
0
ENDSEC
0
SECTION
2
BLOCKS
0
BLOCK
5
20
100
AcDbEntity
100
AcDbBlockBegin
2
*MODEL_SPACE
0
ENDBLK
5
21
100
AcDbEntity
100
AcDbBlockEnd
0
BLOCK
5
1C
100
AcDbEntity
100
AcDbBlockBegin
2
*PAPER_SPACE
0
ENDBLK
5
1D
100
AcDbEntity
100
AcDbBlockEnd
0
ENDSEC
0
SECTION
2
ENTITIES
0
CIRCLE
5
100
100
AcDbEntity
8
0
100
AcDbCircle
10
52.979031119049807
20
150.17390269026558
30
0
40
1.6000000000000014
210
-2.9104937862775118e-31
220
-5.8387737420205544e-32
230
1
0
CIRCLE
5
101
100
AcDbEntity
8
0
100
AcDbCircle
10
54.643647151722391
20
144.40943797411288
30
0
40
1.6000000000000014
210
-2.9104937862775118e-31
220
-5.8387737420205544e-32
230
1
0
CIRCLE
5
102
100
AcDbEntity
8
0
100
AcDbCircle
10
56.308263184394967
20
138.64497325796017
30
0
40
1.6000000000000014
210
-2.9104937862775118e-31
220
-5.8387737420205544e-32
230
1
0
CIRCLE
5
103
100
AcDbEntity
8
0
100
AcDbCircle
10
57.97287921706755
20
132.8805085418075
30
-2.7755575615628914e-16
40
1.6000000000000014
210
-2.9104937862775118e-31
220
-5.8387737420205544e-32
230
1
0
CIRCLE
5
104
100
AcDbEntity
8
0
100
AcDbCircle
10
59.637495249740134
20
127.11604382565477
30
2.7755575615628914e-16
40
1.6000000000000014
210
-2.9104937862775118e-31
220
-5.8387737420205544e-32
230
1
0
CIRCLE
5
105
100
AcDbEntity
8
0
100
AcDbCircle
10
61.302111282412724
20
121.35157910950211
30
0
40
1.6000000000000014
210
-2.9104937862775118e-31
220
-5.8387737420205544e-32
230
1
0
CIRCLE
5
106
100
AcDbEntity
8
0
100
AcDbCircle
10
62.966727315085301
20
115.5871143933494
30
-2.7755575615628914e-16
40
1.6000000000000014
210
-2.9104937862775118e-31
220
-5.8387737420205544e-32
230
1
0
CIRCLE
5
107
100
AcDbEntity
8
0
100
AcDbCircle
10
70.73493558640817
20
88.68627908562425
30
0
40
1.6000000000000014
210
-2.9104937862775118e-31
220
-5.8387737420205544e-32
230
1
0
CIRCLE
5
108
100
AcDbEntity
8
0
100
AcDbCircle
10
64.631343347757891
20
109.82264967719669
30
0
40
1.6000000000000014
210
-2.9104937862775118e-31
220
-5.8387737420205544e-32
230
1
0
LWPOLYLINE
5
109
100
AcDbEntity
8
0
100
AcDbPolyline
90
2
70
1
43
0.0
10
45.608059146772547
20
190.65753812178914
42
0.81649658092772648
10
47.239043105854115
20
185.00953924384856
0
LWPOLYLINE
5
110
100
AcDbEntity
8
0
100
AcDbPolyline
90
2
70
1
43
0.0
10
48.391936049084698
20
185.34246245038304
42
0.81649658092772004
10
46.760952090003094
20
190.99046132832365
0
LWPOLYLINE
5
111
100
AcDbEntity
8
0
100
AcDbPolyline
90
8
70
1
43
0.0
10
52.770866590586223
20
199.5546344676421
42
0.41421356237309764
10
49.675416278575895
20
201.26290475242536
10
37.666114786590981
20
197.79495468435738
42
0.41421356237309159
10
35.616190444850915
20
194.08041430994473
10
66.966459060184491
20
85.516328822402272
42
0.41421356237309609
10
71.919179559401371
20
82.783096366748879
10
81.526620752989416
20
85.557456421203256
42
0.41421356237310453
10
84.259853208642824
20
90.510176920420108
0
CIRCLE
5
112
100
AcDbEntity
8
0
100
AcDbCircle
10
70.734935586408184
20
88.68627908562425
30
-2.7755575615628914e-16
40
1.6000000000000014
210
-9.8607613152626476e-32
220
-5.5447515849516804e-40
230
1
0
CIRCLE
5
113
100
AcDbEntity
8
0
100
AcDbCircle
10
64.631343347757891
20
109.82264967719669
30
5.5511151231257827e-16
40
1.6000000000000014
210
-9.8607613152626476e-32
220
-5.5447515849516804e-40
230
1
0
LWPOLYLINE
5
114
100
AcDbEntity
8
0
100
AcDbPolyline
90
2
70
1
43
0.0
10
48.391936049084698
20
185.34246245038301
10
46.760952090003094
20
190.99046132832368
42
-0.81649658092772903
0
LWPOLYLINE
5
115
100
AcDbEntity
8
0
100
AcDbPolyline
90
2
70
1
43
0.0
10
45.608059146772547
20
190.65753812178909
10
47.239043105854115
20
185.00953924384851
42
-0.8164965809277156
0
LWPOLYLINE
5
116
100
AcDbEntity
8
0
100
AcDbPolyline
90
8
70
1
43
0.0
10
84.259853208642838
20
90.510176920420108
10
52.770866590586252
20
199.55463446764207
42
0.41421356237310136
10
49.675416278575923
20
201.2629047524253
10
37.666114786590995
20
197.79495468435741
42
0.41421356237309559
10
35.616190444850915
20
194.0804143099447
10
66.966459060184519
20
85.516328822402272
42
0.41421356237309587
10
71.919179559401385
20
82.783096366748879
10
81.52662075298943
20
85.557456421203256
42
0.41421356237309631
0
CIRCLE
5
117
100
AcDbEntity
8
0
100
AcDbCircle
10
52.979031119049822
20
150.17390269026558
30
0
40
1.6000000000000014
210
-9.8607613152626476e-32
220
-5.5447515849516804e-40
230
1
0
CIRCLE
5
118
100
AcDbEntity
8
0
100
AcDbCircle
10
54.643647151722412
20
144.40943797411288
30
2.7755575615628914e-16
40
1.6000000000000014
210
-9.8607613152626476e-32
220
-5.5447515849516804e-40
230
1
0
CIRCLE
5
119
100
AcDbEntity
8
0
100
AcDbCircle
10
56.308263184394988
20
138.64497325796017
30
5.5511151231257827e-16
40
1.6000000000000014
210
-9.8607613152626476e-32
220
-5.5447515849516804e-40
230
1
0
CIRCLE
5
120
100
AcDbEntity
8
0
100
AcDbCircle
10
57.972879217067558
20
132.8805085418075
30
-5.5511151231257827e-16
40
1.6000000000000014
210
-9.8607613152626476e-32
220
-5.5447515849516804e-40
230
1
0
CIRCLE
5
121
100
AcDbEntity
8
0
100
AcDbCircle
10
59.637495249740141
20
127.11604382565477
30
0
40
1.6000000000000014
210
-9.8607613152626476e-32
220
-5.5447515849516804e-40
230
1
0
CIRCLE
5
122
100
AcDbEntity
8
0
100
AcDbCircle
10
61.302111282412739
20
121.35157910950211
30
0
40
1.6000000000000014
210
-9.8607613152626476e-32
220
-5.5447515849516804e-40
230
1
0
CIRCLE
5
123
100
AcDbEntity
8
0
100
AcDbCircle
10
62.966727315085308
20
115.5871143933494
30
0
40
1.6000000000000014
210
-9.8607613152626476e-32
220
-5.5447515849516804e-40
230
1
0
CIRCLE
5
124
100
AcDbEntity
8
0
100
AcDbCircle
10
61.625728193278853
20
152.67082673927445
30
0
40
1.6000000000000014
210
-4.4151454420530143e-31
220
4.6266402626587564e-31
230
1
0
CIRCLE
5
125
100
AcDbEntity
8
0
100
AcDbCircle
10
63.290344225951429
20
146.90636202312174
30
0
40
1.6000000000000014
210
-4.4151454420530143e-31
220
4.6266402626587564e-31
230
1
0
CIRCLE
5
126
100
AcDbEntity
8
0
100
AcDbCircle
10
64.954960258624027
20
141.14189730696907
30
0
40
1.6000000000000014
210
-4.4151454420530143e-31
220
4.6266402626587564e-31
230
1
0
CIRCLE
5
127
100
AcDbEntity
8
0
100
AcDbCircle
10
66.61957629129661
20
135.37743259081637
30
0
40
1.6000000000000014
210
-4.4151454420530143e-31
220
4.6266402626587564e-31
230
1
0
CIRCLE
5
128
100
AcDbEntity
8
0
100
AcDbCircle
10
68.284192323969194
20
129.61296787466367
30
0
40
1.6000000000000014
210
-4.4151454420530143e-31
220
4.6266402626587564e-31
230
1
0
CIRCLE
5
129
100
AcDbEntity
8
0
100
AcDbCircle
10
69.948808356641777
20
123.84850315851097
30
0
40
1.6000000000000014
210
-4.4151454420530143e-31
220
4.6266402626587564e-31
230
1
0
CIRCLE
5
130
100
AcDbEntity
8
0
100
AcDbCircle
10
71.613424389314346
20
118.08403844235826
30
0
40
1.6000000000000014
210
-4.4151454420530143e-31
220
4.6266402626587564e-31
230
1
0
CIRCLE
5
131
100
AcDbEntity
8
0
100
AcDbCircle
10
73.278040421986944
20
112.31957372620556
30
-2.7755575615628914e-16
40
1.6000000000000014
210
-4.4151454420530143e-31
220
4.6266402626587564e-31
230
1
0
CIRCLE
5
132
100
AcDbEntity
8
0
100
AcDbCircle
10
61.62572819327886
20
152.67082673927445
30
-2.7755575615628914e-16
40
1.6000000000000014
210
-1.9721522852315359e-31
220
3.9443045150155561e-31
230
1
0
CIRCLE
5
133
100
AcDbEntity
8
0
100
AcDbCircle
10
63.290344225951429
20
146.90636202312174
30
0
40
1.6000000000000014
210
-1.9721522852315359e-31
220
3.9443045150155561e-31
230
1
0
CIRCLE
5
134
100
AcDbEntity
8
0
100
AcDbCircle
10
64.954960258624027
20
141.14189730696907
30
2.7755575615628914e-16
40
1.6000000000000014
210
-1.9721522852315359e-31
220
3.9443045150155561e-31
230
1
0
CIRCLE
5
135
100
AcDbEntity
8
0
100
AcDbCircle
10
66.619576291296625
20
135.37743259081637
30
5.5511151231257827e-16
40
1.6000000000000014
210
-1.9721522852315359e-31
220
3.9443045150155561e-31
230
1
0
CIRCLE
5
136
100
AcDbEntity
8
0
100
AcDbCircle
10
68.284192323969194
20
129.61296787466367
30
-5.5511151231257827e-16
40
1.6000000000000014
210
-1.9721522852315359e-31
220
3.9443045150155561e-31
230
1
0
CIRCLE
5
137
100
AcDbEntity
8
0
100
AcDbCircle
10
69.948808356641777
20
123.84850315851097
30
-2.7755575615628914e-16
40
1.6000000000000014
210
-1.9721522852315359e-31
220
3.9443045150155561e-31
230
1
0
CIRCLE
5
138
100
AcDbEntity
8
0
100
AcDbCircle
10
71.61342438931436
20
118.08403844235826
30
0
40
1.6000000000000014
210
-1.9721522852315359e-31
220
3.9443045150155561e-31
230
1
0
CIRCLE
5
139
100
AcDbEntity
8
0
100
AcDbCircle
10
73.278040421986944
20
112.31957372620556
30
0
40
1.6000000000000014
210
-1.9721522852315359e-31
220
3.9443045150155561e-31
230
1
0
CIRCLE
5
140
100
AcDbEntity
8
0
100
AcDbCircle
10
79.381632660637223
20
91.183203134633146
30
0
40
1.6000000000000014
210
-2.5685275008739886e-31
220
-1.7680859280340581e-31
230
1
0
CIRCLE
5
141
100
AcDbEntity
8
0
100
AcDbCircle
10
79.381632660637223
20
91.183203134633146
30
0
40
1.6000000000000014
210
-0
220
0
230
1
0
ENDSEC
0
SECTION
2
OBJECTS
0
DICTIONARY
5
C
100
AcDbDictionary
3
ACAD_GROUP
350
D
3
ACAD_MLINESTYLE
350
17
0
DICTIONARY
5
D
100
AcDbDictionary
0
DICTIONARY
5
1A
330
C
100
AcDbDictionary
0
DICTIONARY
5
17
100
AcDbDictionary
0
ENDSEC
0
EOF
