0
SECTION
2
HEADER
9
$INSUNITS
70
4
9
$ACADVER
1
AC1014
9
$HANDSEED
5
FFFF
0
ENDSEC
0
SECTION
2
TABLES
0
TABLE
2
VPORT
5
8
100
AcDbSymbolTable
0
ENDTAB
0
TABLE
2
LTYPE
5
5
100
AcDbSymbolTable
0
LTYPE
5
14
100
AcDbSymbolTableRecord
100
AcDbLinetypeTableRecord
2
BYBLOCK
70
0
0
LTYPE
5
15
100
AcDbSymbolTableRecord
100
AcDbLinetypeTableRecord
2
BYLAYER
70
0
0
ENDTAB
0
TABLE
2
LAYER
5
2
100
AcDbSymbolTable
70
2
0
LAYER
5
50
100
AcDbSymbolTableRecord
100
AcDbLayerTableRecord
2
0
70
0
6
CONTINUOUS
0
ENDTAB
0
TABLE
2
STYLE
5
3
100
AcDbSymbolTable
70
1
0
STYLE
5
11
100
AcDbSymbolTableRecord
100
AcDbTextStyleTableRecord
2
STANDARD
70
0
0
ENDTAB
0
TABLE
2
VIEW
5
6
100
AcDbSymbolTable
70
0
0
ENDTAB
0
TABLE
2
UCS
5
7
100
AcDbSymbolTable
70
0
0
ENDTAB
0
TABLE
2
APPID
5
9
100
AcDbSymbolTable
70
2
0
APPID
5
12
100
AcDbSymbolTableRecord
100
AcDbRegAppTableRecord
2
ACAD
70
0
0
ENDTAB
0
TABLE
2
DIMSTYLE
5
A
100
AcDbSymbolTable
70
1
0
ENDTAB
0
TABLE
2
BLOCK_RECORD
5
1
100
AcDbSymbolTable
70
1
0
BLOCK_RECORD
5
1F
100
AcDbSymbolTableRecord
100
AcDbBlockTableRecord
2
*MODEL_SPACE
0
BLOCK_RECORD
5
1B
100
AcDbSymbolTableRecord
100
AcDbBlockTableRecord
2
*PAPER_SPACE
0
ENDTAB
0
ENDSEC
0
SECTION
2
BLOCKS
0
BLOCK
5
20
100
AcDbEntity
100
AcDbBlockBegin
2
*MODEL_SPACE
0
ENDBLK
5
21
100
AcDbEntity
100
AcDbBlockEnd
0
BLOCK
5
1C
100
AcDbEntity
100
AcDbBlockBegin
2
*PAPER_SPACE
0
ENDBLK
5
1D
100
AcDbEntity
100
AcDbBlockEnd
0
ENDSEC
0
SECTION
2
ENTITIES
0
CIRCLE
5
100
100
AcDbEntity
8
0
100
AcDbCircle
10
58.134688210595378
20
148.54013037169744
30
0
40
1.6000000000000014
210
-2.9104937862775118e-31
220
-5.8387737420205544e-32
230
1
0
CIRCLE
5
101
100
AcDbEntity
8
0
100
AcDbCircle
10
59.799304243267954
20
142.77566565554474
30
0
40
1.6000000000000014
210
-2.9104937862775118e-31
220
-5.8387737420205544e-32
230
1
0
CIRCLE
5
102
100
AcDbEntity
8
0
100
AcDbCircle
10
61.463920275940545
20
137.01120093939204
30
0
40
1.6000000000000014
210
-2.9104937862775118e-31
220
-5.8387737420205544e-32
230
1
0
CIRCLE
5
103
100
AcDbEntity
8
0
100
AcDbCircle
10
63.128536308613114
20
131.24673622323934
30
0
40
1.6000000000000014
210
-2.9104937862775118e-31
220
-5.8387737420205544e-32
230
1
0
CIRCLE
5
104
100
AcDbEntity
8
0
100
AcDbCircle
10
64.793152341285719
20
125.48227150708666
30
2.7755575615628914e-16
40
1.6000000000000014
210
-2.9104937862775118e-31
220
-5.8387737420205544e-32
230
1
0
CIRCLE
5
105
100
AcDbEntity
8
0
100
AcDbCircle
10
66.457768373958288
20
119.71780679093396
30
0
40
1.6000000000000014
210
-2.9104937862775118e-31
220
-5.8387737420205544e-32
230
1
0
CIRCLE
5
106
100
AcDbEntity
8
0
100
AcDbCircle
10
68.122384406630871
20
113.95334207478126
30
-2.7755575615628914e-16
40
1.6000000000000014
210
-2.9104937862775118e-31
220
-5.8387737420205544e-32
230
1
0
CIRCLE
5
107
100
AcDbEntity
8
0
100
AcDbCircle
10
75.890592677953748
20
87.052506767056045
30
0
40
1.6000000000000014
210
-2.9104937862775118e-31
220
-5.8387737420205544e-32
230
1
0
CIRCLE
5
108
100
AcDbEntity
8
0
100
AcDbCircle
10
69.787000439303441
20
108.18887735862856
30
2.7755575615628914e-16
40
1.6000000000000014
210
-2.9104937862775118e-31
220
-5.8387737420205544e-32
230
1
0
LWPOLYLINE
5
109
100
AcDbEntity
8
0
100
AcDbPolyline
90
2
70
1
43
0.0
10
45.608059146772547
20
190.65753812178914
42
0.81649658092772648
10
47.239043105854115
20
185.00953924384856
0
LWPOLYLINE
5
110
100
AcDbEntity
8
0
100
AcDbPolyline
90
2
70
1
43
0.0
10
48.391936049084698
20
185.34246245038304
42
0.81649658092772004
10
46.760952090003094
20
190.99046132832365
0
LWPOLYLINE
5
111
100
AcDbEntity
8
0
100
AcDbPolyline
90
6
70
1
43
0.0
10
49.76019869999574
20
195.56265611214803
42
0.41421356237309764
10
46.664748387985412
20
197.27092639693129
10
42.341399850870786
20
196.02246437242681
42
0.4142135623730942
10
40.291475509130699
20
192.30792399801413
10
72.751488146246018
20
79.900862033036546
10
82.358929339834063
20
82.675222087490923
0
CIRCLE
5
112
100
AcDbEntity
8
0
100
AcDbCircle
10
75.890592677953762
20
87.052506767056045
30
0
40
1.6000000000000014
210
-9.8607613152626476e-32
220
-5.5447515849516804e-40
230
1
0
CIRCLE
5
113
100
AcDbEntity
8
0
100
AcDbCircle
10
69.787000439303455
20
108.18887735862856
30
2.7755575615628914e-16
40
1.6000000000000014
210
-9.8607613152626476e-32
220
-5.5447515849516804e-40
230
1
0
LWPOLYLINE
5
114
100
AcDbEntity
8
0
100
AcDbPolyline
90
2
70
1
43
0.0
10
48.391936049084698
20
185.34246245038301
10
46.760952090003094
20
190.99046132832368
42
-0.81649658092772903
0
LWPOLYLINE
5
115
100
AcDbEntity
8
0
100
AcDbPolyline
90
2
70
1
43
0.0
10
45.608059146772547
20
190.65753812178909
10
47.239043105854115
20
185.00953924384851
42
-0.8164965809277156
0
LWPOLYLINE
5
116
100
AcDbEntity
8
0
100
AcDbPolyline
90
6
70
1
43
0.0
10
82.358929339834077
20
82.675222087490937
10
49.760198699995755
20
195.56265611214803
42
0.41421356237309492
10
46.664748387985441
20
197.27092639693129
10
42.341399850870772
20
196.02246437242681
42
0.41421356237309254
10
40.291475509130706
20
192.30792399801413
10
72.751488146246018
20
79.900862033036532
0
CIRCLE
5
117
100
AcDbEntity
8
0
100
AcDbCircle
10
58.134688210595385
20
148.54013037169744
30
2.7755575615628914e-16
40
1.6000000000000014
210
-9.8607613152626476e-32
220
-5.5447515849516804e-40
230
1
0
CIRCLE
5
118
100
AcDbEntity
8
0
100
AcDbCircle
10
59.799304243267962
20
142.77566565554474
30
0
40
1.6000000000000014
210
-9.8607613152626476e-32
220
-5.5447515849516804e-40
230
1
0
CIRCLE
5
119
100
AcDbEntity
8
0
100
AcDbCircle
10
61.463920275940552
20
137.01120093939204
30
2.7755575615628914e-16
40
1.6000000000000014
210
-9.8607613152626476e-32
220
-5.5447515849516804e-40
230
1
0
CIRCLE
5
120
100
AcDbEntity
8
0
100
AcDbCircle
10
63.128536308613128
20
131.24673622323934
30
-2.7755575615628914e-16
40
1.6000000000000014
210
-9.8607613152626476e-32
220
-5.5447515849516804e-40
230
1
0
CIRCLE
5
121
100
AcDbEntity
8
0
100
AcDbCircle
10
64.793152341285719
20
125.48227150708666
30
2.7755575615628914e-16
40
1.6000000000000014
210
-9.8607613152626476e-32
220
-5.5447515849516804e-40
230
1
0
CIRCLE
5
122
100
AcDbEntity
8
0
100
AcDbCircle
10
66.457768373958288
20
119.71780679093396
30
2.7755575615628914e-16
40
1.6000000000000014
210
-9.8607613152626476e-32
220
-5.5447515849516804e-40
230
1
0
CIRCLE
5
123
100
AcDbEntity
8
0
100
AcDbCircle
10
68.122384406630886
20
113.95334207478126
30
-2.7755575615628914e-16
40
1.6000000000000014
210
-9.8607613152626476e-32
220
-5.5447515849516804e-40
230
1
0
ENDSEC
0
SECTION
2
OBJECTS
0
DICTIONARY
5
C
100
AcDbDictionary
3
ACAD_GROUP
350
D
3
ACAD_MLINESTYLE
350
17
0
DICTIONARY
5
D
100
AcDbDictionary
0
DICTIONARY
5
1A
330
C
100
AcDbDictionary
0
DICTIONARY
5
17
100
AcDbDictionary
0
ENDSEC
0
EOF
