0
SECTION
2
HEADER
9
$INSUNITS
70
4
9
$ACADVER
1
AC1014
9
$HANDSEED
5
FFFF
0
ENDSEC
0
SECTION
2
TABLES
0
TABLE
2
VPORT
5
8
100
AcDbSymbolTable
0
ENDTAB
0
TABLE
2
LTYPE
5
5
100
AcDbSymbolTable
0
LTYPE
5
14
100
AcDbSymbolTableRecord
100
AcDbLinetypeTableRecord
2
BYBLOCK
70
0
0
LTYPE
5
15
100
AcDbSymbolTableRecord
100
AcDbLinetypeTableRecord
2
BYLAYER
70
0
0
ENDTAB
0
TABLE
2
LAYER
5
2
100
AcDbSymbolTable
70
2
0
LAYER
5
50
100
AcDbSymbolTableRecord
100
AcDbLayerTableRecord
2
0
70
0
6
CONTINUOUS
0
ENDTAB
0
TABLE
2
STYLE
5
3
100
AcDbSymbolTable
70
1
0
STYLE
5
11
100
AcDbSymbolTableRecord
100
AcDbTextStyleTableRecord
2
STANDARD
70
0
0
ENDTAB
0
TABLE
2
VIEW
5
6
100
AcDbSymbolTable
70
0
0
ENDTAB
0
TABLE
2
UCS
5
7
100
AcDbSymbolTable
70
0
0
ENDTAB
0
TABLE
2
APPID
5
9
100
AcDbSymbolTable
70
2
0
APPID
5
12
100
AcDbSymbolTableRecord
100
AcDbRegAppTableRecord
2
ACAD
70
0
0
ENDTAB
0
TABLE
2
DIMSTYLE
5
A
100
AcDbSymbolTable
70
1
0
ENDTAB
0
TABLE
2
BLOCK_RECORD
5
1
100
AcDbSymbolTable
70
1
0
BLOCK_RECORD
5
1F
100
AcDbSymbolTableRecord
100
AcDbBlockTableRecord
2
*MODEL_SPACE
0
BLOCK_RECORD
5
1B
100
AcDbSymbolTableRecord
100
AcDbBlockTableRecord
2
*PAPER_SPACE
0
ENDTAB
0
ENDSEC
0
SECTION
2
BLOCKS
0
BLOCK
5
20
100
AcDbEntity
100
AcDbBlockBegin
2
*MODEL_SPACE
0
ENDBLK
5
21
100
AcDbEntity
100
AcDbBlockEnd
0
BLOCK
5
1C
100
AcDbEntity
100
AcDbBlockBegin
2
*PAPER_SPACE
0
ENDBLK
5
1D
100
AcDbEntity
100
AcDbBlockEnd
0
ENDSEC
0
SECTION
2
ENTITIES
0
CIRCLE
5
100
100
AcDbEntity
8
0
100
AcDbCircle
10
30.92585277557437
20
166.08022022247314
30
0
40
2.7500000000000036
210
2.660322297837721e-64
220
1.4726746902915526e-48
230
1
0
LWPOLYLINE
5
101
100
AcDbEntity
8
0
100
AcDbPolyline
90
23
70
1
43
0.0
10
-64.074147224426298
20
-18.919779777526834
10
-64.074147224426241
20
-3.919779777526835
10
-61.074147224426241
20
-3.9197797775268355
10
-61.074147224426305
20
-21.919779777526838
10
-49.074147224426312
20
-21.919779777526834
10
-49.074147224426248
20
-3.9197797775268373
10
-46.074147224426255
20
-3.9197797775268377
10
-46.074147224426312
20
-18.919779777526841
10
-43.074147224426298
20
-18.919779777526838
10
-43.074147224426305
20
-21.919779777526838
10
-31.074147224426373
20
-21.919779777526838
10
-31.074147224426369
20
-18.919779777526841
10
-19.074147224426291
20
-18.919779777526841
10
-19.074147224425669
20
151.08022022247314
10
40.925852775574313
20
151.08022022247314
10
40.925852775574405
20
181.08022022247314
10
-41.074147224425637
20
181.08022022247314
42
0.41421356237309631
10
-91.074147224425815
20
131.08022022247314
10
-91.074147224426298
20
-18.919779777526813
10
-79.074147224426298
20
-18.919779777526834
10
-79.074147224426312
20
-21.919779777526827
10
-67.074147224426312
20
-21.919779777526834
10
-67.074147224426298
20
-18.919779777526834
0
LWPOLYLINE
5
102
100
AcDbEntity
8
0
100
AcDbPolyline
90
23
70
1
43
0.0
10
-64.074147224426241
20
-3.919779777526835
10
-64.074147224426298
20
-18.919779777526834
10
-67.074147224426298
20
-18.919779777526834
10
-67.074147224426312
20
-21.919779777526834
10
-79.074147224426312
20
-21.919779777526827
10
-79.074147224426298
20
-18.919779777526831
10
-91.074147224426298
20
-18.919779777526827
10
-91.074147224425815
20
131.08022022247314
42
-0.41421356237309609
10
-41.07414722442563
20
181.08022022247314
10
40.925852775574405
20
181.08022022247314
10
40.925852775574313
20
151.08022022247314
10
-19.074147224425666
20
151.08022022247314
10
-19.074147224426284
20
-18.919779777526841
10
-31.074147224426369
20
-18.919779777526841
10
-31.074147224426376
20
-21.919779777526838
10
-43.074147224426305
20
-21.919779777526838
10
-43.074147224426298
20
-18.919779777526838
10
-46.074147224426305
20
-18.919779777526838
10
-46.074147224426255
20
-3.9197797775268395
10
-49.074147224426248
20
-3.919779777526839
10
-49.074147224426319
20
-21.919779777526838
10
-61.074147224426312
20
-21.919779777526834
10
-61.074147224426241
20
-3.919779777526835
0
CIRCLE
5
103
100
AcDbEntity
8
0
100
AcDbCircle
10
30.92585277557437
20
166.08022022247314
30
0
40
2.7500000000000036
210
0
220
0
230
1
0
ENDSEC
0
SECTION
2
OBJECTS
0
DICTIONARY
5
C
100
AcDbDictionary
3
ACAD_GROUP
350
D
3
ACAD_MLINESTYLE
350
17
0
DICTIONARY
5
D
100
AcDbDictionary
0
DICTIONARY
5
1A
330
C
100
AcDbDictionary
0
DICTIONARY
5
17
100
AcDbDictionary
0
ENDSEC
0
EOF
